<svg width="4013" height="4013" viewBox="0 0 4013 4013" fill="none" xmlns="http://www.w3.org/2000/svg">
    <rect width="4013" height="4013" rx="1000" fill="white" />
    <path
        d="M520.846 1623.67H931.613C956.638 1623.67 979.737 1637.1 992.112 1658.85L1843.35 3154.99H1439.37C1414.43 3154.99 1391.39 3141.65 1378.98 3120.01L520.846 1623.67Z"
        fill="#414141" />
    <path
        d="M3221.54 858.009H2809.71C2784.62 858.009 2761.47 871.512 2749.12 893.353L2107.85 2027.38H2512.93C2537.91 2027.38 2560.97 2014 2573.37 1992.31L3221.54 858.009Z"
        fill="#414141" />
    <path
        d="M1627.57 2221.28H2037.06C2062.12 2221.28 2085.24 2234.74 2097.6 2256.53L2306.82 2625.22C2333.45 2672.14 2401.02 2672.24 2427.79 2625.4L2872.98 1846.41L3076.5 2200.78C3088.74 2222.09 3088.83 2248.29 3076.74 2269.69L2596.44 3119.63C2584.09 3141.48 2560.94 3154.99 2535.84 3154.99H2205.07C2180.16 3154.99 2157.15 3141.68 2144.73 3120.1L1627.57 2221.28Z"
        fill="#414141" />
    <path
        d="M2490.68 858.009H2083.14C2057.62 858.009 2034.14 871.978 2021.97 894.411L1634.53 1608.24L1226.49 893.118C1214.11 871.41 1191.03 858.009 1166.04 858.009H750.544L1395.26 1992.17C1407.63 2013.94 1430.74 2027.38 1455.77 2027.38H1792.2C1817.35 2027.38 1840.54 2013.82 1852.87 1991.9L2490.68 858.009Z"
        fill="#414141" />
    <path d="M3231.98 2006.5L3458.03 1614.97H3005.93L3231.98 2006.5Z" fill="#414141" />
</svg>