<svg width="722" height="1065" viewBox="0 0 722 1065" fill="none" xmlns="http://www.w3.org/2000/svg">
<path d="M263.883 795.184C278.383 781.184 317.183 751.484 356.383 744.684C363.118 743.606 366.079 745.287 369.49 747.222C372.409 748.879 375.657 750.722 381.883 751.184C383.083 751.273 383.923 751.255 385.267 751.227C386.163 751.208 387.283 751.184 388.883 751.184H389.383C390.983 751.184 392.103 751.208 392.999 751.227C394.343 751.255 395.183 751.273 396.383 751.184C402.608 750.722 405.856 748.879 408.775 747.222C412.186 745.287 415.147 743.606 421.883 744.684C461.083 751.484 499.883 781.184 514.383 795.184L514.752 795.645C519.304 801.329 523.74 806.868 507.383 795.184C486.383 780.184 468.383 770.184 447.883 763.684C431.781 758.578 407.564 758.896 393.383 761.366C389.959 761.962 387.813 761.856 384.383 761.281C370.138 758.89 346.297 758.638 330.383 763.684C309.883 770.184 291.883 780.184 270.883 795.184C254.525 806.868 258.961 801.329 263.513 795.645L263.883 795.184Z" fill="black"/>
<path d="M361.383 880.684C364.549 879.017 373.683 875.784 384.883 876.184C398.883 876.684 405.556 880.288 412.883 884.684C417.883 887.684 415.383 888.184 409.383 886.184C405.383 884.851 398.383 883.384 388.383 882.184C378.383 880.984 371.383 883.596 366.383 884.184C360.716 884.851 351.783 886.284 361.383 880.684Z" fill="black"/>
<path d="M361.383 880.684C364.549 879.017 373.683 875.784 384.883 876.184C398.883 876.684 405.556 880.288 412.883 884.684C417.883 887.684 415.383 888.184 409.383 886.184C405.383 884.851 398.383 883.384 388.383 882.184C378.383 880.984 371.383 883.596 366.383 884.184C360.716 884.851 351.783 886.284 361.383 880.684Z" fill="black"/>
<path fill-rule="evenodd" clip-rule="evenodd" d="M203.383 820.684C204.183 841.484 206.383 917.351 207.383 952.684C207.439 954.631 207.487 956.492 207.533 958.273C208.148 982.102 208.391 991.505 221.883 998.684C240.049 1008.35 280.283 1030.98 295.883 1044.18C311.483 1057.38 321.383 1064.18 351.883 1064.18H426.883C457.383 1064.18 467.283 1057.38 482.883 1044.18C498.483 1030.98 538.716 1008.35 556.883 998.684C570.375 991.505 570.617 982.102 571.233 958.273C571.279 956.492 571.327 954.631 571.383 952.684C572.383 917.351 574.583 841.484 575.383 820.684C576.383 794.684 570.383 744.184 551.883 732.684C531.883 719.684 440.883 666.184 423.383 682.684C408.033 697.157 401.53 698.55 393.078 700.361C391.895 700.615 390.673 700.877 389.383 701.184C388.093 700.877 386.871 700.615 385.687 700.361C377.235 698.55 370.733 697.157 355.383 682.684C337.883 666.184 246.883 719.684 226.883 732.684C208.383 744.184 202.383 794.684 203.383 820.684ZM389.383 725.184C384.716 725.851 372.983 726.184 363.383 722.184C351.383 717.184 286.883 735.684 247.883 779.184C243.883 788.684 242.883 792.684 242.883 807.684C242.883 819.684 235.883 826.684 232.383 828.684C231.049 829.017 228.083 834.784 226.883 855.184C225.683 875.584 224.716 899.017 224.383 908.184C223.883 913.017 226.483 921.684 240.883 917.684C258.883 912.684 263.383 914.184 265.883 923.684C266.34 925.422 266.747 927.41 267.18 929.528C269.117 938.985 271.578 951.007 281.383 954.684C293.383 959.184 337.883 973.684 389.383 972.184C440.883 973.684 485.383 959.184 497.383 954.684C507.188 951.007 509.649 938.985 511.585 929.528C512.018 927.41 512.425 925.422 512.883 923.684C515.383 914.184 519.883 912.684 537.883 917.684C552.283 921.684 554.883 913.017 554.383 908.184C554.049 899.017 553.083 875.584 551.883 855.184C550.683 834.784 547.716 829.017 546.383 828.684C542.883 826.684 535.883 819.684 535.883 807.684C535.883 792.684 534.883 788.684 530.883 779.184C491.883 735.684 427.383 717.184 415.383 722.184C405.783 726.184 394.049 725.851 389.383 725.184Z" fill="black"/>
<path d="M318.383 589.184C295.397 589.991 275.883 605.684 280.383 640.184C282.383 650.351 291.583 671.584 312.383 675.184C333.183 678.784 318.383 669.351 308.383 664.184C299.885 659.328 287.851 646.024 294.383 626.497C298.805 613.275 307.286 606.369 321.383 605.386C328.303 604.903 334.447 606.039 337.883 607.184C341.549 609.184 350.383 610.484 356.383 599.684C363.883 586.184 366.936 581.458 368.883 573.184C372.883 556.184 366.383 564.684 361.383 570.684C351.383 582.684 342.068 588.353 318.383 589.184Z" fill="black"/>
<path d="M460.126 589.184C483.112 589.991 502.626 605.684 498.126 640.184C496.126 650.351 486.926 671.584 466.126 675.184C445.326 678.784 460.126 669.351 470.126 664.184C478.624 659.328 490.658 646.024 484.126 626.497C479.703 613.275 471.222 606.369 457.126 605.386C450.206 604.903 444.061 606.039 440.626 607.184C436.959 609.184 428.126 610.484 422.126 599.684C414.626 586.184 411.573 581.458 409.626 573.184C405.626 556.184 412.126 564.684 417.126 570.684C427.126 582.684 436.441 588.353 460.126 589.184Z" fill="black"/>
<path d="M343.883 652.684C332.549 654.851 310.983 654.584 315.383 636.184C319.383 624.684 330.883 623.684 343.883 627.684C356.883 631.684 370.383 649.684 371.383 661.684C372.183 671.284 364.049 661.684 359.883 655.684C358.216 653.184 352.683 649.084 343.883 652.684Z" fill="black"/>
<path d="M434.399 652.684C445.732 654.851 467.299 654.584 462.899 636.184C458.899 624.684 447.399 623.684 434.399 627.684C421.399 631.684 407.899 649.684 406.899 661.684C406.099 671.284 414.232 661.684 418.399 655.684C420.066 653.184 425.599 649.084 434.399 652.684Z" fill="black"/>
<path d="M152.883 463.184C157.883 459.184 172.983 450.584 193.383 448.184C201.883 448.184 194.289 458.465 198.883 469.184C200.383 472.684 200.883 473.684 208.883 476.684C210.883 477.434 203.383 479.584 183.383 473.184C158.383 465.184 154.883 469.184 152.883 463.184Z" fill="black"/>
<path d="M628.921 463.184C623.921 459.184 608.821 450.584 588.421 448.184C579.921 448.184 587.515 458.465 582.921 469.184C581.421 472.684 580.921 473.684 572.921 476.684C570.921 477.434 578.421 479.584 598.421 473.184C623.421 465.184 626.921 469.184 628.921 463.184Z" fill="black"/>
<path d="M286.383 458.184C296.383 465.784 303.216 468.351 305.383 468.684C307.883 469.684 311.183 472.584 304.383 476.184C299.583 478.584 294.383 478.517 292.383 478.184C286.549 477.517 272.183 476.784 261.383 479.184C247.883 482.184 244.383 478.684 247.383 476.184C250.383 473.684 256.883 468.684 256.383 455.184C255.883 449.684 253.383 448.684 254.883 446.684C256.51 444.514 263.541 447.38 265.694 448.002C271.41 449.654 279.35 452.839 286.383 458.184Z" fill="black"/>
<path d="M495.421 458.184C485.421 465.784 478.588 468.351 476.421 468.684C473.921 469.684 470.621 472.584 477.421 476.184C482.221 478.584 487.421 478.517 489.421 478.184C495.254 477.517 509.621 476.784 520.421 479.184C533.921 482.184 537.421 478.684 534.421 476.184C531.421 473.684 524.921 468.684 525.421 455.184C525.921 449.684 528.421 448.684 526.921 446.684C525.294 444.514 518.263 447.38 516.109 448.002C510.394 449.654 502.454 452.839 495.421 458.184Z" fill="black"/>
<path d="M291.883 796.184C305.185 792.177 341.82 784.78 383.383 785.996C386.734 786.094 390.029 786.095 393.381 785.996C434.907 784.78 471.08 792.177 484.383 796.184C495.183 800.584 492.216 801.017 489.383 800.684C446.928 792.769 410.46 794.508 393.369 796.878C389.702 797.387 387.049 797.384 383.383 796.878C366.21 794.508 329.338 792.769 286.883 800.684C284.049 801.017 281.083 800.584 291.883 796.184Z" fill="black"/>
<path d="M277.383 811.184C275.383 809.684 271.383 807.284 271.383 809.684C271.383 812.684 315.883 845.684 344.883 851.684C361.849 855.194 373.966 855.442 380.883 854.54C385.435 853.946 387.33 853.946 391.883 854.54C398.799 855.442 410.916 855.194 427.883 851.684C456.883 845.684 501.383 812.684 501.383 809.684C501.383 807.284 497.383 809.684 495.383 811.184C427.28 850.28 345.485 850.28 277.383 811.184Z" fill="black"/>
<path d="M31.8827 435.184C11.0494 430.684 -20.7173 445.684 18.8827 541.684C29.2827 583.684 29.8827 601.184 27.8827 641.684C25.8827 659.184 31.4827 668.684 51.8827 678.684C51.8827 784.684 112.383 806.184 146.883 907.684C159.716 914.351 177.683 899.084 146.883 784.684C146.883 742.684 179.883 716.684 163.383 618.184C131.383 541.684 95.3827 479.684 115.883 421.184C127.549 412.684 158.783 397.484 190.383 404.684C229.883 413.684 298.383 425.184 319.883 409.684C334.682 399.015 349.22 365.06 319.883 362.184C294.383 359.684 262.383 370.184 223.383 357.684C184.383 345.184 160.383 357.684 156.883 357.684C153.383 357.684 144.883 370.184 134.383 335.184C125.983 307.184 125.883 260.517 126.883 240.684C142.383 202.351 178.383 122.984 198.383 112.184C223.383 98.6841 437.883 53.6841 587.383 122.184C617.883 152.684 648.383 197.184 637.883 240.684C629.483 275.484 659.716 301.517 675.883 310.184C678.549 311.017 683.883 317.184 683.883 335.184C683.883 357.684 708.383 497.184 700.383 541.684C692.383 586.184 710.991 563.184 713.883 462.684C753.826 247.638 647.883 -55.2427 284.883 8.68402C206.041 26.6478 151.118 63.2622 99.0126 126.684C-2.28967 249.988 17.9609 385.463 31.8827 435.184Z" fill="black"/>
<path d="M467.361 409.24C488.861 424.74 557.361 413.24 596.861 404.24C610.535 402.221 643.583 401.384 666.383 414.184C689.183 426.984 673.383 371.184 630.361 357.24C625.383 355.626 602.861 344.74 563.861 357.24C524.861 369.74 492.861 359.24 467.361 361.74C438.024 364.616 452.562 398.57 467.361 409.24Z" fill="black"/>
</svg>
