<svg xmlns="http://www.w3.org/2000/svg" version="1.1" xmlns:xlink="http://www.w3.org/1999/xlink" width="512"
    height="512" x="0" y="0" viewBox="0 0 1000 900" style="enable-background:new 0 0 512 512" xml:space="preserve"
    class="">
    <g>
        <linearGradient id="a" x1="665.778" x2="690.691" y1="105.932" y2="171.356" gradientUnits="userSpaceOnUse">
            <stop offset="0" stop-color="#fff"></stop>
            <stop offset=".051" stop-color="#fff" stop-opacity=".949"></stop>
            <stop offset="1" stop-color="#fff" stop-opacity="0"></stop>
        </linearGradient>
        <linearGradient id="b" x1="664.142" x2="673.764" y1="136.9" y2="152.534" gradientUnits="userSpaceOnUse">
            <stop offset="0" stop-color="#fff"></stop>
            <stop offset=".138" stop-color="#fff" stop-opacity=".862"></stop>
            <stop offset="1" stop-color="#fff" stop-opacity="0"></stop>
        </linearGradient>
        <path fill="#f5f9ff"
            d="M863.7 663.1c-.3 40.2-16.8 84.9-44.2 114.3H159c-24.3-16-46.6-36.9-57.4-63.9s-7.7-60.9 13.2-81.2c17.7-17.2 45.9-23.3 58.2-44.7 10.6-18.7 4.9-42.8-6.6-61s-28-32.6-40.9-49.8c-40-52.9-40.4-132.9.8-184.8 41.2-52 120.8-69.6 179.1-38 18.4 10 35.3 24.4 55.9 27.5 29.1 4.4 55.8-14.5 80.1-30.9C492.4 216 549 187.5 610 180c61-7.6 127 8.1 170.5 51.6s58.2 116.9 25.4 168.9c-14.4 22.9-37.6 43-38.7 70-1.4 34 31.8 57.4 54.6 82.6 27 29.7 42.2 69.8 41.9 110z"
            opacity="1" data-original="#f5f9ff" class=""></path>
        <path fill="#bccbe3" d="m182.6 671.4-18.5 106H98.4l-18.5-106z" opacity="1" data-original="#bccbe3" class="">
        </path>
        <path fill="#869ec9"
            d="M189.7 665.4c0 3.3-2.7 6-6 6H78.8c-3.3 0-6-2.7-6-6 0-1.7.7-3.2 1.8-4.2 1.1-1.1 2.6-1.8 4.3-1.8h104.9c3.2 0 5.9 2.7 5.9 6z"
            opacity="1" data-original="#869ec9"></path>
        <path fill="#e8edf7" d="m109.5 659.4-8.1 8.1 25.4 25.4 25.4-25.4-8.1-8.1z" opacity="1" data-original="#e8edf7"
            class=""></path>
        <path fill="#869ec9" d="m355.85 598.272 11-.033.454 151.5-11 .033z" opacity="1" data-original="#869ec9"></path>
        <path fill="#384562"
            d="M342.6 616.6c0 10.4 8.5 18.8 18.8 18.7 10.4 0 18.7-8.5 18.7-18.8 0-10.4-8.4-18.7-18.8-18.7s-18.8 8.4-18.7 18.8z"
            opacity="1" data-original="#384562"></path>
        <path fill="#869ec9"
            d="M329.9 607.7v4.3c0 2.2 1.8 4 4 4l54.9-.1c2.2 0 4-1.8 4-4v-4.3zM278.4 756l-9.2-7.2c22.3-28.6 55.9-45.1 92.1-45.2s69.9 16.2 92.3 44.8l-9.2 7.2c-20.2-25.7-50.5-40.4-83.1-40.3-32.5.1-62.8 14.9-82.9 40.7z"
            opacity="1" data-original="#869ec9"></path>
        <circle cx="269.8" cy="760.4" r="17.3" fill="#384562" opacity="1" data-original="#384562"></circle>
        <circle cx="269.8" cy="760.4" r="10.3" fill="#5972ba" opacity="1" data-original="#5972ba" class=""></circle>
        <circle cx="361.5" cy="760.1" r="17.3" fill="#384562" opacity="1" data-original="#384562"></circle>
        <circle cx="361.5" cy="760.1" r="10.3" fill="#5972ba" opacity="1" data-original="#5972ba" class=""></circle>
        <circle cx="453.1" cy="759.9" r="17.3" fill="#384562" opacity="1" data-original="#384562"></circle>
        <circle cx="453.1" cy="759.9" r="10.3" fill="#5972ba" opacity="1" data-original="#5972ba" class=""></circle>
        <path fill="#5972ba"
            d="M212 417c7.7 21.2 11.1 90.6 12.6 145.1h179.7c-2.2-32.6-8.3-69.1-23.5-88.6-15.4-19.8-19.8-67.4-22.4-112.2-.1-1.4-.2-2.8-.2-4.2-.1-.8-.1-1.7-.1-2.5-2.4-44.4-3.6-84.5-12.8-89.4-18.8-10.1-136.7-11.9-146.8-3.7-7.1 5.7-4.2 60.9 2.7 106.3 3 20 6.8 38 10.8 49.2z"
            opacity="1" data-original="#5972ba" class=""></path>
        <path fill="#322867"
            d="M358.5 361.3c-7 5.6-17.3 8.8-25.2 8.8l-105.7.3v-5.1l105.7-.3c9.2 0 19.9-4.6 24.9-10.4.1.8.1 1.7.1 2.5 0 1.4.1 2.8.2 4.2z"
            opacity="1" data-original="#322867"></path>
        <path fill="#322867"
            d="M518.9 592.2c0 8.2-6.6 14.9-14.9 14.9l-264.4.6c-8.2 0-14.9-6.6-14.9-14.9l-.1-30.8c-1.5-54.6-4.9-123.9-12.6-145.1-13.3-36.5-23.7-147.3-13.6-155.4 4.9-3.9 35-5.6 67-5.1-20.7.5-37.1 2.2-40.7 5-10.1 8.1.3 118.9 13.6 155.4 7.7 21.2 11.1 90.5 12.6 145.1l253-.6c8.2 0 14.9 6.6 14.9 14.9z"
            opacity="1" data-original="#322867"></path>
        <path fill="#5972ba"
            d="M518.9 592.2c0 8.2-6.6 14.9-14.9 14.9l-96.2.2v-.2h.5c8.2 0 14.9-6.7 14.9-14.9v-15.9c0-7.4-5.4-13.5-12.4-14.6l93.1-.2c8.2 0 14.9 6.6 14.9 14.9z"
            opacity="1" data-original="#5972ba" class=""></path>
        <path fill="#f9b59d"
            d="M219.6 255.5c-1.5-4.6-.7-7.5-.2-11.3.1-1.2.7-2.3 1.5-3.3.8-.9 1.9-1.6 3.1-1.5 2.8 2 3.8 5.7 4 9.1.1 1.4.1 2.9-.3 4.3s-1.3 2.7-2.5 3.3c-1.3.7-5.2.8-5.6-.6z"
            opacity="1" data-original="#f9b59d"></path>
        <path fill="#fbae5c" d="m257.4 260.5 5.5 10-11.2-2.3z" opacity="1" data-original="#fbae5c" class=""></path>
        <path fill="#384562"
            d="m259.3 269.7 3.6.8-1.8-3.3zM207.5 226.6l-3.3 4.4c-.7.9-.5 2.2.4 2.9l47 34.3 5.7-7.8-47-34.3c-.8-.7-2.1-.5-2.8.5z"
            opacity="1" data-original="#384562"></path>
        <path fill="#5aad64" d="m215.9 230.1-5.5-4c-.9-.7-2.2-.5-2.9.4l-3.3 4.4c-.7.9-.5 2.2.4 2.9l5.5 4z" opacity="1"
            data-original="#5aad64"></path>
        <path fill="#bccbe3" d="m208.395 236.718 5.664-7.747 1.695 1.239-5.664 7.747z" opacity="1"
            data-original="#bccbe3" class=""></path>
        <path fill="#fdc5ae" fill-rule="evenodd" d="m627.238 637.716 15.846 18.765-20.197 20.806-16.366-19.78z"
            clip-rule="evenodd" opacity="1" data-original="#fdc5ae"></path>
        <path fill="#f38255"
            d="M691.5 665.3c-5.3 6.1-18 15.6-25.6 17.3-7.7 1.7-22.9 5.2-22.9 5.2 1.2 2.5 13.4 11.3 13.4 11.3l-8 7.4s-10.6-9.4-16.1-13.1-14.9-21.1-14.9-21.1l23.8-21s10.6 8.8 25.8 6.7c14.9-2.1 15-13.3 23-11.9 10.3 1.7 6.7 13 1.5 19.2z"
            opacity="1" data-original="#f38255"></path>
        <path fill="#384562"
            d="m642.9 628.1-47.8 44-18-16.9L465.7 550H336.2l8.4-30.5 14.2-51.4s116.3-7.4 150.1 9c45.4 22.1 134 151 134 151z"
            opacity="1" data-original="#384562"></path>
        <path fill="#243149"
            d="M577.2 655.1 465.7 550H336.2l8.4-30.5 28.9-50.5s99.7-7.9 143.1 31.7c43.5 39.7 60.6 154.4 60.6 154.4z"
            opacity="1" data-original="#243149"></path>
        <path fill="#fdc5ae"
            d="M456.8 411.3c11.8-5.1 17.2-18.9 12-30.7-4.3-9.7-57.3-82.8-68.6-113.1-4.9-13.2-24.4-26.4-36.5-25.6-7.6.5-8.2 2.7-7.7 4.4.3 1 1.2 1.7 2.2 2.1 19.5 6.3 21.1 14.1 13.8 12.8-7.4-1.3-1.1 8.6-1.1 8.6s-6.8-5-5.5 3.5c.5 3.3 4.3 7.6 8.8 11.6 9.9 8.8 31.9 49.3 35 62.2 5.1 21.2 13.9 45.6 16.8 52.2 5.3 11.7 19 17.2 30.8 12z"
            opacity="1" data-original="#fdc5ae"></path>
        <path fill="#384562"
            d="M379.1 325.5c3.9-9.6.4-21.7-8.1-27.7-5-3.5-11.4-5.1-15.5-9.6-7.5-8.2-4.1-21.5-8.6-31.7-4.1-9.5-14.7-14.9-25.1-16-12.6-1.3-25.8 3.1-34.5 12.3S275 276 279 288c2.5 7.6 7.9 14.8 6.7 22.7-1.5 10-13 16.4-14 26.4-.8 7.7 4.8 14.7 4.9 22.5.1 6.2-3.4 11.8-5 17.7-2.5 9.3-.2 19.7 5.5 27.5s14.6 13 24.1 14.8c15.4 2.9 31.4-2.8 44-12.1 26.8-19.8 41.2-49.5 33.9-82z"
            opacity="1" data-original="#384562"></path>
        <path fill="#fdc5ae" fill-rule="evenodd" d="m561.988 706.566 8.047 23.18-26.332 12.202-8.169-24.338z"
            clip-rule="evenodd" opacity="1" data-original="#fdc5ae"></path>
        <path fill="#f38255"
            d="M612 755.3c-7.1 3.8-22.4 8.1-30.1 6.9-7.8-1.2-23.2-3.4-23.2-3.4.2 2.8 8.4 15.3 8.4 15.3l-10.1 4.1s-6.5-12.6-10.3-18-6.3-25.1-6.3-25.1l29.8-11s6.7 12 21.7 15.5c14.6 3.4 18.7-7 25.7-2.8 9 5.3 1.5 14.6-5.6 18.5z"
            opacity="1" data-original="#f38255"></path>
        <path fill="#384562"
            d="M489.6 497.7c-25.8-21.5-130.8-29.6-130.8-29.6L239 476.2l6.2 48.3c2.8 21.4 20.8 37.5 42.4 37.9l152.4-.8 81.7 172.5 57.1-27.7s-45.6-172.3-89.2-208.7z"
            opacity="1" data-original="#384562"></path>
        <path fill="#f38255"
            d="M441.8 411.7c-44.4 4.9-68.3-16.9-68.3-16.9 0 .1-.1.1-.1.2-23.5 36.2.1 74 .1 74s-122 85.7-134.5 24.5c-.3-1.6-.4-3.3-.9-4.8-9.1-27.5-11-51.4-9.4-71.3 1.6-20.4 7-36.5 12-47.6 4.7-10.3 13-18.4 23.4-22.7.7-.3 1.4-.6 2.1-.8l33.6-12 34-12.1 32 10.4 43.8 14.2c6.1 21.8 13.9 43.4 16.8 50.1 3.2 7 8.8 12.1 15.4 14.8z"
            opacity="1" data-original="#f38255"></path>
        <path fill="#e26439"
            d="M270.8 416.7c-6.6 9.5-19.8 13.8-30.7 9.9-3.3-1.2-6.4-3.1-8.4-5.9-3.9-5.4-3.1-12.8-1.1-19.2 1.7-5.6 4.2-11 8.1-15.4s9.2-7.7 15-8.3c20-2.3 26.5 25.4 17.1 38.9z"
            opacity="1" data-original="#e26439"></path>
        <path fill="#fdc5ae"
            d="M350.1 327.4c-.2 10.6-8.8 19-19.4 19-10.3 0-20.2-5.6-20.9-15.6 1.1-.4 3.6-3.5 4.2-4.4.3-.4.5-.9.7-1.4.2-.6.3-1.2.3-1.8v-16.7h25.3v13.8c0 2.3 1.5 4.3 3.7 5z"
            opacity="1" data-original="#fdc5ae"></path>
        <path fill="#f9b59d"
            d="M350.1 327.4c-6.7 2.2-13.8 3.2-20.9 2.8-4.9-.2-10.1-1.2-13.8-4.5-.3-.2-.5-.5-.8-.7.2-.6.3-1.2.3-1.8v-7.8c5.3 3.5 11.7 5.5 18.1 5.7 2.4 0 4.8-.2 7.2-.7 0 2.3 1.5 4.3 3.7 5z"
            opacity="1" data-original="#f9b59d"></path>
        <path fill="#fdc5ae"
            d="M320.8 287.8c.4-.4 8.4-8.8 5.5-28.5 0 0-3.9 26.1-19.4 37 .4-.4 6.3-6.5 6.3-19.9 0 0-5.6 13.7-18.3 19.6 3 13.3 13.8 24.8 27 28.3 4.9 1.3 10.3 1.6 14.9-.6 4-1.9 6.9-5.5 8.7-9.5s2.4-8.4 2.6-12.8c.6-14.4-3.6-28.9-11.8-40.7 0-.1 1 15.7-15.5 27.1z"
            opacity="1" data-original="#fdc5ae"></path>
        <path fill="#e26439"
            d="M373.5 469s-122 85.7-134.5 24.5l-.9-4.8c56.5 30.3 125.9-26 125.9-26-8.1-11.2-8.6-26.3-6.5-39.9 2.1-13.7 6.6-26.8 6.6-40.7 1.4 5.2 4.8 9.9 9.3 12.9-23.5 36.1.1 74 .1 74z"
            opacity="1" data-original="#e26439"></path>
        <path fill="#fdc5ae"
            d="M252.7 420.1c-12.7 2.3-24.8-6.1-27.1-18.8-1.9-10.4 1.4-100.7-6-132.1-3.2-13.7 5.5-35.5 16-41.6 6.6-3.8 8.4-2.3 8.8-.7.3 1 0 2.1-.7 2.9-12.7 16.1-9.7 23.5-4.4 18.3 5.5-5.2 5.7 6.5 5.7 6.5s2.9-8 6.5-.1c1.4 3.1.6 8.7-.9 14.6-3.3 12.8 1 58.7 5.6 71.1 7.6 20.4 13.9 45.6 15.2 52.7 2.4 12.7-6 24.9-18.7 27.2z"
            opacity="1" data-original="#fdc5ae"></path>
        <path
            d="M324.2 297c0 1.3-1 2.3-2.3 2.3s-2.3-1-2.3-2.3 1-2.3 2.3-2.3 2.3 1 2.3 2.3zM338.7 293.5c0 1.3-1 2.3-2.3 2.3s-2.3-1-2.3-2.3 1-2.3 2.3-2.3 2.3 1.1 2.3 2.3z"
            fill="#000000" opacity="1" data-original="#000000"></path>
        <g fill="none" stroke="#000" stroke-miterlimit="10">
            <path stroke-width=".426"
                d="M331 299.3c0 .9.5 1.7 1 2.3s1.1 1.3 1.6 2.1c.4.8.6 1.7.3 2.5s-1.2 1.3-2 1.4c-.9.1-1.7-.2-2.5-.7"
                fill="" opacity="1"></path>
            <path stroke-width="1.791" d="M316.7 295.2c1.4-1.8 3.5-3 5.8-3.2M339.9 288.5c-2.1-.7-4.6-.5-6.6.5" fill=""
                opacity="1"></path>
        </g>
        <path fill="#ffffff" d="M325.7 311.9c1 3.3 4.3 5.4 7.8 4.7 3.4-.7 5.7-4 5.2-7.5-3.6 3.1-7.9 4.1-13 2.8z"
            opacity="1" data-original="#ffffff"></path>
        <g fill="none" stroke="#000" stroke-miterlimit="10" stroke-width=".426">
            <path
                d="M362.3 373.1c0 8.5 4.4 16.6 11.2 21.7M503.6 665.5l23.1 47.2 26.4-14.4M553.1 607.3l42 43.9 22.3-18.7"
                fill="" opacity="1"></path>
        </g>
        <path fill="#fbae5c" d="M641.6 431.6v-21.8H734c2.7 0 4.8 2.2 4.8 4.8v12.1c0 2.7-2.2 4.8-4.8 4.8h-92.4z"
            opacity="1" data-original="#fbae5c" class=""></path>
        <path fill="#e8edf7"
            d="M641.6 426.9v-12.6h59.1c3.5 0 6.3 2.8 6.3 6.3s-2.8 6.3-6.3 6.3zM721.6 418.8H734v3.6h-12.4zM710.2 420.6c0-2.4 2-4.4 4.4-4.4s4.4 2 4.4 4.4-2 4.4-4.4 4.4-4.4-1.9-4.4-4.4z"
            opacity="1" data-original="#e8edf7" class=""></path>
        <path fill="#bccbe3"
            d="M641.6 423.3h52.2v.7h-52.2zM641.6 420.8h58.3v.8h-58.3zM641.6 418.4h52.2v.7h-52.2zM641.6 415.9h58.3v.8h-58.3z"
            opacity="1" data-original="#bccbe3" class=""></path>
        <path fill="#5aad64" d="M748.6 431.6v21.8h-92.3c-2.7 0-4.8-2.2-4.8-4.8v-12.1c0-2.7 2.2-4.8 4.8-4.8h92.3z"
            opacity="1" data-original="#5aad64"></path>
        <path fill="#e8edf7"
            d="M748.6 436.2v12.6h-59.1c-3.5 0-6.3-2.8-6.3-6.3s2.8-6.3 6.3-6.3zM656.2 440.7h12.4v3.6h-12.4zM680 442.5c0 2.4-2 4.4-4.4 4.4s-4.4-2-4.4-4.4 2-4.4 4.4-4.4 4.4 1.9 4.4 4.4z"
            opacity="1" data-original="#e8edf7" class=""></path>
        <path fill="#bccbe3"
            d="M696.4 439.1h52.2v.7h-52.2zM690.2 441.5h58.3v.8h-58.3zM696.4 444h52.2v.7h-52.2zM690.2 446.5h58.3v.8h-58.3zM624.6 777.4l59.6-281.6h104.9l59.6 281.6h14.8l-62.7-296.1H672.5l-62.7 296.1z"
            opacity="1" data-original="#bccbe3" class=""></path>
        <path fill="#bccbe3"
            d="M661.4 561.6H812v14.5H661.4zM191.4 777.4 251 495.8h104.8l59.7 281.6h14.8l-62.7-296.1H239.3l-62.7 296.1z"
            opacity="1" data-original="#bccbe3" class=""></path>
        <path fill="#bccbe3" d="M228.2 561.6h150.6v14.5H228.2z" opacity="1" data-original="#bccbe3" class=""></path>
        <path fill="#fbae5c" d="M177.3 453.4h660.3v28H177.3z" opacity="1" data-original="#fbae5c" class=""></path>
        <path fill="#ea9242" d="M177.3 453.4h232.4v28H177.3z" opacity="1" data-original="#ea9242"></path>
        <path fill="#bccbe3"
            d="M660.4 272.9v135.6c0 3.9-3.1 7.2-7.1 7.3l-213.1 7.9c-4.2.2-7.6-3.2-7.6-7.3V265.1c0-4.2 3.4-7.5 7.6-7.3l213.1 7.9c3.9.1 7.1 3.3 7.1 7.2zM359 445.1h168.7v8.3H359z"
            opacity="1" data-original="#bccbe3" class=""></path>
        <path fill="#384562"
            d="M580.2 356c0 1.3-.5 2.6-1.4 3.4-.9.9-2.1 1.4-3.4 1.4h-42.7c-2.7 0-4.9-2.2-4.9-4.9 0-1.3.5-2.6 1.4-3.4.9-.9 2.1-1.4 3.4-1.4h42.7c2.7 0 4.9 2.2 4.9 4.9z"
            opacity="1" data-original="#384562"></path>
        <path fill="#869ec9"
            d="M575.6 453.5h-37.8c7.7 0 13.6-7 12.3-14.6L535.8 356h37.8l14.3 82.9c1.3 7.6-4.6 14.6-12.3 14.6z"
            opacity="1" data-original="#869ec9"></path>
        <path fill="#64cc6e"
            d="M902 602.6c-27.5 40.8-43.6 100.3-56.5 100.9-15.1 1-20.9-73.9 13.7-126.8 33.3-52.1 66.3-58.4 73.6-48.1 9.2 11.5-4.7 32.5-30.8 74z"
            opacity="1" data-original="#64cc6e"></path>
        <path fill="#339279"
            d="m845.1 703.5-1.6-.2c5.7-57.2 28.9-112.7 65.4-156.2l1.3 1.1c-36.3 43.2-59.4 98.4-65.1 155.3z" opacity="1"
            data-original="#339279"></path>
        <path fill="#5aad64"
            d="M853.7 528.5c-9.4 73.3 9 163.9-7.9 173.4-19.6 11.5-77.7-85-67.1-179.3 9.5-92.3 49.6-123 66.4-114.1 20.3 9.2 15.7 46.8 8.6 120z"
            opacity="1" data-original="#5aad64"></path>
        <path fill="#339279" d="M843.1 703c-30.9-80.6-37.1-170.7-17.5-253.6l2.4.6c-19.5 82.4-13.4 172 17.4 252.1z"
            opacity="1" data-original="#339279"></path>
        <path fill="#64cc6e"
            d="M753.1 613.3c31.2 38.1 52.7 95.8 65.6 95.2 15.1-.4 13.9-75.5-25.3-125-38-48.8-71.4-52-77.8-41.1-8.2 12.3 7.6 32 37.5 70.9z"
            opacity="1" data-original="#64cc6e"></path>
        <path fill="#339279" d="M819 708.5c-10.9-56.1-39-108.9-79.1-148.6l1.2-1.2c40.3 39.9 68.6 93 79.6 149.5z"
            opacity="1" data-original="#339279"></path>
        <path fill="#fbae5c"
            d="m866.6 704.1-9 62.6c-.9 6.1-6.1 10.6-12.2 10.6l-35.7.1c-6.2 0-11.4-4.5-12.3-10.6l-9.3-62.5z" opacity="1"
            data-original="#fbae5c" class=""></path>
        <path fill="#32286710" d="m864.3 720.6 2.3-16.5-78.5.2 2.5 16.4z" opacity="1" data-original="#32286710"></path>
        <path fill="#fbae5c"
            d="M873.1 693.4v8.3c0 3.5-2.8 6.4-6.4 6.4l-80.9.2c-3.5 0-6.4-2.8-6.4-6.4v-8.3c0-3.5 2.8-6.4 6.3-6.4l80.9-.2c3.6.1 6.5 2.9 6.5 6.4z"
            opacity="1" data-original="#fbae5c" class=""></path>
        <path fill="#bccbe3" d="M61.7 777.3h876.6v1.7H61.7z" opacity="1" data-original="#bccbe3" class=""></path>
        <path fill="#5972ba"
            d="M634.2 180v21.8h-8.6v16h-21.8v-16h-44.4V180l37.4-58.9h25.9L585.2 180h18.6v-20.1h21.8V180zM820.4 180v21.8h-8.6v16H790v-16h-44.4V180l37.4-58.9h25.9L771.4 180H790v-20.1h21.8V180z"
            opacity="1" data-original="#5972ba" class=""></path>
        <path fill="#fbae5c"
            d="M738.1 169.3c0 26.6-21.6 48.2-48.2 48.2s-48.2-21.6-48.2-48.2 21.6-48.2 48.2-48.2 48.2 21.6 48.2 48.2z"
            opacity="1" data-original="#fbae5c" class=""></path>
        <g fill="#5972ba">
            <path
                d="M590.7 242.1v7.8h-4.5v-22.1h8.5c1.6 0 3.1.3 4.3.9 1.3.6 2.2 1.5 2.9 2.6s1 2.4 1 3.8c0 2.2-.7 3.9-2.2 5.1-1.5 1.3-3.5 1.9-6.1 1.9zm0-3.7h4c1.2 0 2.1-.3 2.7-.8.6-.6.9-1.4.9-2.4 0-1.1-.3-2-.9-2.6-.6-.7-1.5-1-2.6-1h-4.1zM615.1 249.9c-.2-.4-.3-.9-.4-1.5-1.1 1.2-2.4 1.8-4.1 1.8-1.6 0-2.9-.5-4-1.4-1-.9-1.6-2.1-1.6-3.5 0-1.7.6-3.1 1.9-4s3.1-1.4 5.5-1.4h2v-.9c0-.8-.2-1.4-.6-1.8-.4-.5-1-.7-1.8-.7-.7 0-1.3.2-1.7.5-.4.4-.6.8-.6 1.5h-4.3c0-1 .3-1.8.9-2.6s1.4-1.4 2.5-1.9 2.3-.7 3.6-.7c2 0 3.6.5 4.8 1.5s1.8 2.4 1.8 4.3v7.1c0 1.6.2 2.7.6 3.5v.3h-4.5zm-3.6-3c.6 0 1.2-.1 1.8-.4.5-.3.9-.7 1.2-1.2v-2.8h-1.6c-2.2 0-3.3.8-3.5 2.3v.3c0 .5.2 1 .6 1.4.3.2.8.4 1.5.4zM621.5 241.6c0-2.5.6-4.5 1.8-6.1 1.2-1.5 2.8-2.3 4.8-2.3 1.8 0 3.2.6 4.2 1.9l.2-1.5h3.9v15.9c0 1.4-.3 2.7-1 3.7-.6 1.1-1.6 1.9-2.7 2.4-1.2.6-2.5.8-4.1.8-1.2 0-2.4-.2-3.5-.7s-2-1.1-2.6-1.9l1.9-2.7c1.1 1.2 2.4 1.8 3.9 1.8 1.2 0 2.1-.3 2.7-.9s1-1.5 1-2.6v-.9c-1 1.1-2.3 1.7-4 1.7-2 0-3.5-.8-4.7-2.3s-1.8-3.6-1.8-6.1zm4.4.3c0 1.5.3 2.7.9 3.5s1.4 1.3 2.4 1.3c1.3 0 2.3-.5 2.8-1.5v-6.9c-.6-1-1.5-1.5-2.8-1.5-1 0-1.9.4-2.5 1.3-.5.8-.8 2.1-.8 3.8zM647.3 250.2c-2.4 0-4.3-.7-5.8-2.2s-2.2-3.4-2.2-5.9v-.4c0-1.6.3-3.1.9-4.4s1.5-2.3 2.7-3 2.5-1.1 4-1.1c2.2 0 4 .7 5.3 2.1s1.9 3.4 1.9 6v1.8h-10.4c.1 1.1.6 1.9 1.3 2.6s1.6 1 2.7 1c1.7 0 3-.6 3.9-1.8l2.1 2.4c-.7.9-1.5 1.7-2.6 2.2-1.3.5-2.5.7-3.8.7zm-.5-13.5c-.9 0-1.6.3-2.1.9s-.9 1.4-1 2.5h6v-.4c0-1-.3-1.7-.8-2.3s-1.2-.7-2.1-.7zM668.1 233.5l.1 1.9c1.2-1.5 2.7-2.2 4.7-2.2 1.7 0 3 .5 3.9 1.5.8 1 1.3 2.6 1.3 4.6v10.6h-4.3v-10.5c0-.9-.2-1.6-.6-2s-1.1-.6-2-.6c-1.2 0-2.1.5-2.8 1.6V250H664v-16.4h4.1zM680.7 241.6c0-1.6.3-3.1.9-4.4s1.5-2.3 2.7-3 2.5-1 4.1-1c2.2 0 4 .7 5.4 2 1.4 1.4 2.2 3.2 2.3 5.5v1.1c0 2.5-.7 4.5-2.1 6.1-1.4 1.5-3.3 2.3-5.6 2.3s-4.2-.8-5.6-2.3-2.1-3.6-2.1-6.2zm4.3.3c0 1.6.3 2.8.9 3.6s1.4 1.2 2.5 1.2 1.9-.4 2.5-1.2.9-2.1.9-3.9c0-1.5-.3-2.7-.9-3.6-.6-.8-1.4-1.3-2.5-1.3s-1.9.4-2.5 1.3c-.6.8-.9 2.1-.9 3.9zM704 229.5v4h2.8v3.2H704v8.2c0 .6.1 1 .3 1.3s.7.4 1.3.4c.5 0 .9 0 1.3-.1v3.3c-.9.3-1.7.4-2.6.4-3.1 0-4.6-1.6-4.7-4.7v-8.8h-2.4v-3.2h2.4v-4zM718.1 249.9v-13.2h-2.4v-3.2h2.4v-1.4c0-1.8.5-3.3 1.6-4.3 1-1 2.5-1.5 4.4-1.5.6 0 1.3.1 2.2.3v3.4c-.4-.1-.8-.1-1.3-.1-1.6 0-2.5.8-2.5 2.3v1.3h3.2v3.2h-3.2v13.2zM727.2 241.6c0-1.6.3-3.1.9-4.4s1.5-2.3 2.7-3 2.5-1 4.1-1c2.2 0 4 .7 5.4 2 1.4 1.4 2.2 3.2 2.3 5.5v1.1c0 2.5-.7 4.5-2.1 6.1-1.4 1.5-3.3 2.3-5.6 2.3s-4.2-.8-5.6-2.3-2.1-3.6-2.1-6.2zm4.4.3c0 1.6.3 2.8.9 3.6s1.4 1.2 2.5 1.2 1.9-.4 2.5-1.2.9-2.1.9-3.9c0-1.5-.3-2.7-.9-3.6-.6-.8-1.4-1.3-2.5-1.3s-1.9.4-2.5 1.3c-.6.8-.9 2.1-.9 3.9zM755.1 248.2c-1.1 1.3-2.6 2-4.5 2-1.7 0-3.1-.5-4-1.5s-1.4-2.5-1.4-4.4v-10.8h4.4v10.6c0 1.7.8 2.6 2.3 2.6s2.5-.5 3-1.5v-11.6h4.4V250h-4.1zM766.6 233.5l.1 1.9c1.2-1.5 2.7-2.2 4.7-2.2 1.7 0 3 .5 3.9 1.5.8 1 1.3 2.6 1.3 4.6v10.6h-4.3v-10.5c0-.9-.2-1.6-.6-2s-1.1-.6-2-.6c-1.2 0-2.1.5-2.8 1.6V250h-4.3v-16.4h4zM779.2 241.6c0-2.6.6-4.6 1.7-6.1s2.7-2.3 4.7-2.3c1.6 0 2.9.6 3.9 1.8v-8.4h4.4v23.3H790l-.2-1.7c-1.1 1.4-2.5 2-4.2 2-1.9 0-3.5-.8-4.6-2.3-1.3-1.5-1.8-3.6-1.8-6.3zm4.3.3c0 1.5.3 2.7.8 3.5s1.3 1.2 2.3 1.2c1.3 0 2.3-.6 2.8-1.7v-6.5c-.5-1.1-1.5-1.7-2.8-1.7-2 .1-3.1 1.8-3.1 5.2z"
                fill="#5972ba" opacity="1" data-original="#5972ba" class=""></path>
        </g>
        <g fill="#1c1c1c">
            <path
                d="M706.6 159.6c-3.2 0-5.9-.8-8.1-2.1.4 4.5 3.1 8 6.8 8.5 4.1.5 8-3.1 9.1-8.3-2.2 1.1-4.8 1.9-7.8 1.9zM716.2 145.8c-2.2-1.3-4.3-2.2-6.4-2.5s-4.1.1-5.9 1-3.4 2.3-4.7 4.1c-1.4 1.7-2.5 3.8-3.6 6.1-.4-2.5 0-5.2 1.1-7.6s3-4.6 5.6-5.9c2.5-1.3 5.7-1.5 8.3-.5s4.6 3 5.6 5.3zM673.3 159.6c3.2 0 5.9-.8 8.1-2.1-.4 4.5-3.1 8-6.8 8.5-4.1.5-8-3.1-9.1-8.3 2.1 1.1 4.7 1.9 7.8 1.9zM663.6 145.8c2.2-1.3 4.3-2.2 6.4-2.5s4.1.1 5.9 1 3.4 2.3 4.7 4.1c1.4 1.7 2.5 3.8 3.6 6.1.4-2.5 0-5.2-1.1-7.6s-3-4.6-5.6-5.9c-2.5-1.3-5.7-1.5-8.3-.5-2.5 1-4.6 3-5.6 5.3zM667.3 192.4c.3-.7.7-1.3 1.1-2 1.5-2.5 3.3-4.7 5.4-6.5 2.2-2 4.7-3.5 7.4-4.7.7-.3 1.4-.5 2.1-.8l1.1-.4 1.1-.2 1.1-.2 2.3-.3h1.8c5.7 0 11.5 2.3 15.7 6.1 2.7 2.5 4.9 5.5 6.2 8.8-2.8-2.7-5.4-4.8-8.1-6.3-4.2-2.5-9-3.8-13.7-3.8h-.7c-4.8.1-9.6 1.6-14.4 4.3-3 1.6-5.7 3.7-8.4 6z"
                fill="#1c1c1c" opacity="1" data-original="#1c1c1c"></path>
        </g>
        <g fill="#fff">
            <path
                d="M687.7 207.4c0 2.5-2 4.5-4.5 4.5-.7 0-1.3-.2-1.9-.4-.7 1.7-2.4 2.9-4.4 2.9-1 0-1.9-.3-2.7-.8-.4.1-.8.1-1.3.1-2.8 0-5.1-2.1-5.4-4.8-1.4-.4-2.4-1.6-2.6-3-1-.9-1.6-2.1-1.6-3.6 0-2.6 2.1-4.8 4.7-4.8.6-2.9 3.1-5 6.1-5 .6 0 1.1.1 1.7.2l8.8-18.9-2.2 22.8c1.7.5 3 2.1 3 4 0 1-.3 1.8-.9 2.5 1.9.5 3.2 2.2 3.2 4.3zM692.1 207.4c0 2.5 2 4.5 4.5 4.5.7 0 1.3-.2 1.9-.4.7 1.7 2.4 2.9 4.4 2.9 1 0 1.9-.3 2.7-.8.4.1.8.1 1.3.1 2.8 0 5.1-2.1 5.4-4.8 1.4-.4 2.4-1.6 2.6-3 1-.9 1.6-2.1 1.6-3.6 0-2.6-2.1-4.8-4.7-4.8-.6-2.9-3.1-5-6.1-5-.6 0-1.1.1-1.7.2l-8.8-18.9 2.2 22.8c-1.7.5-3 2.1-3 4 0 1 .3 1.8.9 2.5-1.9.5-3.2 2.2-3.2 4.3z"
                fill="#ffffff" opacity="1" data-original="#ffffff"></path>
        </g>
        <path fill="url(#a)" d="M719.9 199.3c-16.6 16.6-43.4 16.6-60 0s-16.6-43.4 0-60 43.4-16.6 60 0 16.6 43.4 0 60z"
            opacity="1" data-original="url(#a)"></path>
        <path fill="url(#b)"
            d="M675.7 154.9c-7 4.8-14.8 5.6-17.4 1.7-2.6-3.8.9-10.8 7.9-15.6s14.8-5.6 17.4-1.7c2.6 3.8-.9 10.8-7.9 15.6z"
            opacity="1" data-original="url(#b)"></path>
    </g>
</svg>