<svg width="427" height="330" viewBox="0 0 427 330" fill="none" xmlns="http://www.w3.org/2000/svg">
    <path
        d="M0 110H59.0137C62.6089 110 65.9275 111.93 67.7054 115.055L190 330H131.961C128.378 330 125.069 328.083 123.286 324.975L0 110Z"
        fill="" />
    <path
        d="M388 0H328.833C325.229 0 321.903 1.93999 320.129 5.07772L228 168H286.197C289.785 168 293.099 166.077 294.879 162.961L388 0Z"
        fill="" />
    <path
        d="M159 195.857H217.83C221.429 195.857 224.751 197.791 226.527 200.921L256.585 253.89C260.411 260.631 270.119 260.645 273.965 253.916L337.924 142L367.163 192.911C368.922 195.974 368.935 199.737 367.197 202.811L298.194 324.92C296.42 328.059 293.093 330 289.488 330H241.966C238.388 330 235.083 328.088 233.299 324.987L159 195.857Z"
        fill="" />
    <path
        d="M283 0H224.45C220.784 0 217.411 2.00696 215.662 5.22976L160 107.783L101.378 5.0441C99.5985 1.92526 96.2834 0 92.6925 0H33L125.625 162.942C127.402 166.069 130.722 168 134.318 168H182.652C186.264 168 189.596 166.051 191.367 162.903L283 0Z"
        fill="" />
    <path d="M389.5 165L421.976 108.75H357.024L389.5 165Z" fill="" />
</svg>